<svg xmlns="http://www.w3.org/2000/svg" viewBox="0 0 38.03 111.25"><g id="レイヤー_2" data-name="レイヤー 2"><g id="レイヤー_1-2" data-name="レイヤー 1"><path d="M27.81,51.08a4.24,4.24,0,0,0-.61,0c-.31,0-.62,0-.94,0,.95-2.65,2-5.17,2.39-6l.6-1.34-6.77-6.33L21,38.28a9.42,9.42,0,0,1,.49-1.3,11.43,11.43,0,0,1,3-3.16l.67-.47-.53-.63s-2.71-4.67-4-14.5c-.6-4.62-.86-9.78-1-12.93S19.6.14,19.6.14L19.12,0S19.07.94,19,2.48c-.21,3.8-.68,11.15-1.49,16-.87,5.2-4.44,14.23-4.48,14.3l-.37.57.53.42a14.42,14.42,0,0,1,3.06,3.38,10.62,10.62,0,0,1,.48,1l-1.18-.67L8.77,43.78l.61,1.36c.17.38,1.36,3.06,2.39,6a7.24,7.24,0,0,0-.92,0c-.21,0-.42,0-.63,0C3.58,51.41,0,56.42,0,61.05a9.87,9.87,0,0,0,2.67,6.73,8.22,8.22,0,0,0,6,2.9,7.66,7.66,0,0,0,3.57-1h1c1.28,1.56,2.55,4.64,2.55,9.62a33.85,33.85,0,0,1-1.6,10,28.31,28.31,0,0,1-1.57,4l-.45.86.72.64a6.26,6.26,0,0,1,.56.62c.8,1,3.49,3.15,4.23,6.62a.68.68,0,0,1,0,.14,4.56,4.56,0,1,0,2.6.11c0-.08,0-.18,0-.27a13.79,13.79,0,0,1,2.3-4.71l2.54-2.51.72-.64-.45-.86a27.48,27.48,0,0,1-1.57-4,33.79,33.79,0,0,1-1.6-10c0-3.85,0-6.54,1.32-8.31a12.33,12.33,0,0,1,1.12-1.31h1.09a7.64,7.64,0,0,0,3.58,1h0a8.29,8.29,0,0,0,6-2.89A9.83,9.83,0,0,0,38,61.06C38.07,56.47,34.5,51.41,27.81,51.08Zm4.63,14a4.42,4.42,0,0,1-3.13,1.63h-.07a4.08,4.08,0,0,1-3.54-3,5.42,5.42,0,0,1-.08-.79c.09-2.21,1-2.84,1.51-2.94l.25,0a4.9,4.9,0,0,1,2.26.75l2-.86v-.61L31.56,59a4.76,4.76,0,0,0-3.29-2.28,1.32,1.32,0,0,0-.32-.07H27.8l-.51,0h0a5.11,5.11,0,0,0-4.22,2,6.56,6.56,0,0,0-1.42,4.24,8.35,8.35,0,0,0,.15,1.57A7.6,7.6,0,0,0,22.85,67a14.09,14.09,0,0,0-1.06,1.09,9.63,9.63,0,0,1-1-4.69v-.54c.32-6.76,3.79-7.68,6.36-7.79h.35c4.75.31,6.47,3.43,6.5,6A5.91,5.91,0,0,1,32.44,65.07ZM21.07,42.84l.83-.47,2.56,2.39a75,75,0,0,0-3,8.2c-.2.16-.42.35-.63.55ZM16.24,64.42a8.35,8.35,0,0,0,.15-1.57A6.57,6.57,0,0,0,15,58.61a5.31,5.31,0,0,0-4.16-2,5.06,5.06,0,0,0-4.46,2.8L6.09,60l2.29.63A5.62,5.62,0,0,1,10.21,60a7.08,7.08,0,0,1,.78,0c.39,0,1.33.73,1.41,2.92a3.62,3.62,0,0,1-.08.83,4.07,4.07,0,0,1-3.62,3,4.38,4.38,0,0,1-3.11-1.63,5.9,5.9,0,0,1-1.6-4c0-2.58,1.75-5.7,6.49-6a2.18,2.18,0,0,1,.34,0c2.59.1,6.06,1,6.37,7.81,0,.17,0,.34,0,.52a9.67,9.67,0,0,1-1,4.68c-.38-.43-.74-.79-1.05-1.08A7.6,7.6,0,0,0,16.24,64.42ZM13.56,44.76l2.57-2.39.83.47.26,10.67a8.37,8.37,0,0,0-.67-.58A72.93,72.93,0,0,0,13.56,44.76ZM19,97.89a16.5,16.5,0,0,0-2.49-4.15c.61-1.35,1.79-6.91,2.49-10.81.71,3.9,1.88,9.46,2.49,10.82A16.39,16.39,0,0,0,19,97.89Zm1.38-26.54A16,16,0,0,0,19,74.81a15.61,15.61,0,0,0-1.37-3.45,6.33,6.33,0,0,0,.77-1.64h1.24A6.56,6.56,0,0,0,20.39,71.35Z"/></g></g></svg>