<svg xmlns="http://www.w3.org/2000/svg" viewBox="0 0 11.88 151.86"><g id="レイヤー_2" data-name="レイヤー 2"><g id="レイヤー_1-2" data-name="レイヤー 1"><path d="M7.36,151.67a4.54,4.54,0,0,0,.23-8.55c.21-1,.45-1.94.7-2.82.64-2.2,3.52-3.88,3.52-3.88l.07-.19V136c0-.12-1.38-25.33-1.38-40.22V55.76L7.28,52.57a3.37,3.37,0,0,0,.4-.23A3.74,3.74,0,0,0,9.3,49.09,3.44,3.44,0,0,0,7.76,46a3.46,3.46,0,0,0-1.3-.45,6.54,6.54,0,0,1,2.78-3.09L6.22,0,5.61.09,2.89,42.47a5.77,5.77,0,0,1,2.5,3.18,3.14,3.14,0,0,0-.88.37A3.39,3.39,0,0,0,3,49.09a3.74,3.74,0,0,0,1.62,3.25l.28.17L1.38,55.7v.23s0,23.61,0,39.88S0,135.91,0,136v.24l.1.22s2.84,1.64,3.61,3.85c.3.84.59,1.77.83,2.7a4.53,4.53,0,0,0,.19,8.69,5.44,5.44,0,0,0,1.27.13A4.82,4.82,0,0,0,7.36,151.67ZM4.83,49.05a1.2,1.2,0,0,1,.79-1.19,1.35,1.35,0,0,1,.52-.17,1.08,1.08,0,0,1,.5.17,1.31,1.31,0,0,1,.8,1.25,1.64,1.64,0,0,1-1,1.44,2,2,0,0,1-.36.17A1.72,1.72,0,0,1,4.83,49.05Zm-.6,86.78c.15-2.63,1.34-24.7,1.34-40s0-37.19,0-39.65l.31-.71.2.64V95.81c0,7.49.34,17.55.69,25.75.17,4.1.34,7.73.47,10.34.07,1.3.12,2.35.16,3.07,0,.36,0,.64,0,.83v.07c-.23.61-.87,2.37-1.46,4.53C5.3,138.24,4.52,136.47,4.23,135.83Z"/></g></g></svg>